<?xml version="1.0" encoding="UTF-8" standalone="no" ?>
<!DOCTYPE svg PUBLIC "-//W3C//DTD SVG 1.1//EN" "http://www.w3.org/Graphics/SVG/1.1/DTD/svg11.dtd">
<svg xmlns="http://www.w3.org/2000/svg" xmlns:xlink="http://www.w3.org/1999/xlink" version="1.1" width="620" height="620" viewBox="229 229 620 620" xml:space="preserve">
<desc>Created with Fabric.js 5.2.4</desc>
<defs>
</defs>
<g transform="matrix(1 0 0 1 540 540)" id="38b41c69-cb36-4dfc-9275-c41e2689a0cc"  >
</g>
<g transform="matrix(1 0 0 1 540 540)" id="440a5906-2cc8-4612-bbc5-eb874e9b00bb"  >
<rect style="stroke: none; stroke-width: 1; stroke-dasharray: none; stroke-linecap: butt; stroke-dashoffset: 0; stroke-linejoin: miter; stroke-miterlimit: 4; fill: rgb(255,255,255); fill-rule: nonzero; opacity: 1; visibility: hidden;" vector-effect="non-scaling-stroke"  x="-540" y="-540" rx="0" ry="0" width="1080" height="1080" />
</g>
<g transform="matrix(1 0 0 1 540 645.36)"  >
<path style="stroke: none; stroke-width: 1; stroke-dasharray: none; stroke-linecap: butt; stroke-dashoffset: 0; stroke-linejoin: miter; stroke-miterlimit: 4; fill: rgb(27,89,78); fill-rule: nonzero; opacity: 1;" vector-effect="non-scaling-stroke"  transform=" translate(-480, -585.35)" d="M 725.8 788.9 L 234.2 788.9 C 225.29999999999998 788.9 218.1 781.6999999999999 218.1 772.8 L 218.1 397.9 C 218.1 389 225.29999999999998 381.79999999999995 234.2 381.79999999999995 L 725.8 381.79999999999995 C 734.6999999999999 381.79999999999995 741.9 388.99999999999994 741.9 397.9 L 741.9 772.8 C 741.9 781.7 734.7 788.9 725.8 788.9 z" stroke-linecap="round" />
</g>
<g transform="matrix(1 0 0 1 540 419.46)"  >
<path style="stroke: none; stroke-width: 1; stroke-dasharray: none; stroke-linecap: butt; stroke-dashoffset: 0; stroke-linejoin: miter; stroke-miterlimit: 4; fill: rgb(34,111,97); fill-rule: nonzero; opacity: 1;" vector-effect="non-scaling-stroke"  transform=" translate(-480, -359.45)" d="M 754.1 439 L 205.9 439 C 197 439 189.8 431.8 189.8 422.9 L 189.8 296 C 189.8 287.1 197 279.9 205.9 279.9 L 754.1 279.9 C 763 279.9 770.2 287.09999999999997 770.2 296 L 770.2 422.9 C 770.2 431.8 763 439 754.1 439 z" stroke-linecap="round" />
</g>
<g transform="matrix(1 0 0 1 545.7 318.41)"  >
<path style="stroke: none; stroke-width: 1; stroke-dasharray: none; stroke-linecap: butt; stroke-dashoffset: 0; stroke-linejoin: miter; stroke-miterlimit: 4; fill: rgb(138,29,35); fill-rule: nonzero; opacity: 1;" vector-effect="non-scaling-stroke"  transform=" translate(-485.7, -258.4)" d="M 495.7 291.5 L 475.7 291.5 C 459.2 291.5 445.7 278.1 445.7 261.5 L 445.7 255.3 C 445.7 238.8 459.09999999999997 225.3 475.7 225.3 L 495.7 225.3 C 512.2 225.3 525.7 238.70000000000002 525.7 255.3 L 525.7 261.5 C 525.7 278.1 512.3 291.5 495.7 291.5 z" stroke-linecap="round" />
</g>
<g transform="matrix(1 0 0 1 539.85 673.96)"  >
<rect style="stroke: none; stroke-width: 1; stroke-dasharray: none; stroke-linecap: butt; stroke-dashoffset: 0; stroke-linejoin: miter; stroke-miterlimit: 4; fill: rgb(138,29,35); fill-rule: nonzero; opacity: 1;" vector-effect="non-scaling-stroke"  x="-70.15" y="-174.95" rx="0" ry="0" width="140.3" height="349.9" />
</g>
<g transform="matrix(1 0 0 1 539.85 419.46)"  >
<rect style="stroke: none; stroke-width: 1; stroke-dasharray: none; stroke-linecap: butt; stroke-dashoffset: 0; stroke-linejoin: miter; stroke-miterlimit: 4; fill: rgb(173,36,44); fill-rule: nonzero; opacity: 1;" vector-effect="non-scaling-stroke"  x="-82.65" y="-79.55" rx="0" ry="0" width="165.3" height="159.1" />
</g>
<g transform="matrix(0.97 0 0 1 432.72 285.5)"  >
<path style="stroke: none; stroke-width: 1; stroke-dasharray: none; stroke-linecap: butt; stroke-dashoffset: 0; stroke-linejoin: miter; stroke-miterlimit: 4; fill: rgb(138,29,35); fill-rule: nonzero; opacity: 1;" vector-effect="non-scaling-stroke"  transform=" translate(-375.75, -225.49)" d="M 467.5 239.5 L 378.2 181.8 C 334.09999999999997 153.3 275.9 185 275.9 237.5 L 275.9 237.5 C 275.9 260.9 294.9 279.9 318.29999999999995 279.9 L 458 279.9 C 467.7 279.9 475.6 272 475.6 262.29999999999995 L 475.6 254.19999999999996 C 475.5 248.3 472.5 242.7 467.5 239.5 z M 416.3 260.5 L 339 260.5 C 329.6 260.5 322 252.9 322 243.5 L 322 243.5 C 322 212.7 356.1 194.2 381.9 210.9 L 423.79999999999995 238 C 428.4 240.9 430.59999999999997 246.6 428.79999999999995 252.1 C 427.1 257.3 421.8 260.5 416.3 260.5 z" stroke-linecap="round" />
</g>
<g transform="matrix(1 0 0 1 652.85 285.6)"  >
<path style="stroke: none; stroke-width: 1; stroke-dasharray: none; stroke-linecap: butt; stroke-dashoffset: 0; stroke-linejoin: miter; stroke-miterlimit: 4; fill: rgb(138,29,35); fill-rule: nonzero; opacity: 1;" vector-effect="non-scaling-stroke"  transform=" translate(-592.85, -225.59)" d="M 493 254.3 L 493 262.40000000000003 C 493 272.1 500.9 280.00000000000006 510.6 280.00000000000006 L 650.3 280.00000000000006 C 673.6999999999999 280.00000000000006 692.6999999999999 261.00000000000006 692.6999999999999 237.60000000000005 L 692.6999999999999 237.60000000000005 C 692.6999999999999 185.10000000000005 634.4999999999999 153.40000000000003 590.4 181.90000000000003 L 501 239.5 C 496 242.7 493 248.3 493 254.3 z M 539.7 252.1 C 538 246.6 540.2 240.9 544.7 238 L 586.6 210.9 C 612.4 194.20000000000002 646.5 212.8 646.5 243.5 L 646.5 243.5 C 646.5 252.9 638.9 260.5 629.5 260.5 L 552.2 260.5 C 546.7 260.5 541.3 257.3 539.7 252.1 z" stroke-linecap="round" />
</g>
<g transform="matrix(0 0 0 0 0 0)"  >
<g style=""   >
</g>
</g>
<g transform="matrix(0 0 0 0 0 0)"  >
<g style=""   >
</g>
</g>
<g transform="matrix(0 0 0 0 0 0)"  >
<g style=""   >
</g>
</g>
<g transform="matrix(0 0 0 0 0 0)"  >
<g style=""   >
</g>
</g>
<g transform="matrix(0 0 0 0 0 0)"  >
<g style=""   >
</g>
</g>
<g transform="matrix(0 0 0 0 0 0)"  >
<g style=""   >
</g>
</g>
<g transform="matrix(NaN NaN NaN NaN 0 0)"  >
<g style=""   >
</g>
</g>
<g transform="matrix(NaN NaN NaN NaN 0 0)"  >
<g style=""   >
</g>
</g>
<g transform="matrix(NaN NaN NaN NaN 0 0)"  >
<g style=""   >
</g>
</g>
<g transform="matrix(NaN NaN NaN NaN 0 0)"  >
<g style=""   >
</g>
</g>
<g transform="matrix(NaN NaN NaN NaN 0 0)"  >
<g style=""   >
</g>
</g>
<g transform="matrix(NaN NaN NaN NaN 0 0)"  >
<g style=""   >
</g>
</g>
<g transform="matrix(NaN NaN NaN NaN 0 0)"  >
<g style=""   >
</g>
</g>
<g transform="matrix(NaN NaN NaN NaN 0 0)"  >
<g style=""   >
</g>
</g>
</svg>